<svg xmlns="http://www.w3.org/2000/svg" fill="none" viewBox="0 0 1251 545"><ellipse cx="625.552" cy="892.878" fill="#5F987C" rx="455.946" ry="465.573" style="transform:none;transform-origin:625.552px 892.878px" transformOrigin="625.552001953125px 892.8779907226562px"/><path fill="#5F987C" d="M1184 907.867c0 308.173-250.049 558.003-558.5 558.003S67 1216.04 67 907.867c0-308.175 250.049-558 558.5-558s558.5 249.825 558.5 558Zm-1083.49 0c0 289.683 235.046 524.523 524.99 524.523s524.99-234.84 524.99-524.523c0-289.684-235.046-524.52-524.99-524.52s-524.99 234.836-524.99 524.52Z" opacity=".85" style="transform:none;transform-origin:625.5px 907.868px" transformOrigin="625.5px 907.8684692382812px"/><path fill="#5F987C" d="M1251 907.867c0 345.183-280.046 625.003-625.5 625.003S0 1253.05 0 907.867c0-345.178 280.046-625 625.5-625s625.5 279.822 625.5 625Zm-1238.49 0c0 338.273 274.445 612.503 612.99 612.503s612.99-274.23 612.99-612.503c0-338.274-274.445-612.5-612.99-612.5S12.51 569.593 12.51 907.867Z" opacity=".5" style="transform:none;transform-origin:625.5px 907.868px" transformOrigin="625.5px 907.8684692382812px"/><rect width="92" height="92" x="580" y="242.867" fill="#272323" rx="16"/><ellipse cx="609.755" cy="288.617" fill="#fff" rx="5.341" ry="5.328"/><ellipse cx="625.778" cy="288.617" fill="#fff" rx="5.341" ry="5.328"/><ellipse cx="609.755" cy="304.597" fill="#fff" opacity=".2" rx="5.341" ry="5.328"/><ellipse cx="641.798" cy="304.597" fill="#fff" opacity=".2" rx="5.341" ry="5.328"/><ellipse cx="625.778" cy="304.597" fill="#fff" rx="5.341" ry="5.328"/><ellipse cx="641.798" cy="288.617" fill="#fff" rx="5.341" ry="5.328"/><ellipse cx="609.755" cy="272.632" fill="#fff" opacity=".2" rx="5.341" ry="5.328"/><ellipse cx="625.778" cy="272.632" fill="#fff" opacity=".2" rx="5.341" ry="5.328"/><ellipse cx="641.798" cy="272.632" fill="#fff" opacity=".2" rx="5.341" ry="5.328"/><rect width="154" height="57" x="206" y=".867" fill="#487961" rx="28.5"/><path fill="#fff" d="M243.536 29.302h-1.476c-.185-1.116-1.117-1.82-2.347-1.82-1.661 0-2.584 1.134-2.584 3.182v.861c0 2.048.923 3.173 2.584 3.173 1.23 0 2.162-.694 2.347-1.784h1.476c-.237 1.942-1.687 3.129-3.797 3.129-2.593 0-4.104-1.59-4.104-4.324V30.47c0-2.734 1.511-4.325 4.104-4.325 2.11 0 3.551 1.196 3.797 3.156Zm7.051-5.309c-.703 0-1.239-.527-1.239-1.23 0-.695.536-1.222 1.239-1.222.704 0 1.24.527 1.24 1.222 0 .703-.536 1.23-1.24 1.23Zm3.999 11.874h-7.901v-1.24h3.27V27.57h-3.244v-1.239h4.72v8.297h3.155v1.24Zm14.077-6.96c0-1.653 1.406-2.76 3.506-2.76 1.987 0 3.332.993 3.507 2.584h-1.441c-.176-.836-.976-1.345-2.092-1.345-1.213 0-1.995.562-1.995 1.432 0 .73.492 1.143 1.688 1.407l1.344.307c1.855.422 2.698 1.23 2.698 2.61 0 1.758-1.467 2.901-3.726 2.901-2.162 0-3.595-1.01-3.762-2.645h1.521c.219.878 1.063 1.388 2.294 1.388 1.3 0 2.127-.589 2.127-1.503 0-.756-.466-1.16-1.679-1.432l-1.415-.326c-1.723-.395-2.575-1.265-2.575-2.619Zm16.903 4.5h1.451c-.29 1.573-1.802 2.636-3.806 2.636-2.619 0-4.14-1.573-4.14-4.29v-1.432c0-2.513 1.609-4.166 4.035-4.166 2.478 0 3.937 1.644 3.937 4.404v.931h-6.495v.387c0 1.749 1.037 2.874 2.663 2.874 1.204 0 2.092-.51 2.355-1.345Zm-2.469-5.968c-1.591 0-2.549 1.09-2.549 2.917h5.018c0-1.819-.931-2.918-2.469-2.918Zm10.373 4.157v3.076h2.953v1.195h-6.336v-1.195h1.924v-7.146h-2.118v-1.195h3.56v2.435h.193c.352-1.767 1.538-2.681 3.375-2.681.545 0 1.064.08 1.38.21v1.68a5.044 5.044 0 0 0-1.573-.264c-2.11 0-3.358 1.459-3.358 3.885Zm6.929-5.265h1.599l2.663 7.937h.115l2.645-7.937h1.591l-3.481 9.536h-1.643l-3.489-9.536Zm17.738 7.075h1.451c-.29 1.574-1.802 2.637-3.806 2.637-2.619 0-4.14-1.573-4.14-4.29v-1.432c0-2.513 1.609-4.166 4.034-4.166 2.479 0 3.938 1.644 3.938 4.404v.931h-6.495v.387c0 1.749 1.037 2.874 2.663 2.874 1.204 0 2.092-.51 2.355-1.345Zm-2.469-5.967c-1.591 0-2.549 1.09-2.549 2.917h5.018c0-1.819-.931-2.918-2.469-2.918Zm10.373 4.157v3.076h2.953v1.195h-6.337v-1.195h1.925v-7.146h-2.118v-1.195h3.56v2.435h.193c.352-1.767 1.538-2.681 3.375-2.681.545 0 1.063.08 1.38.21v1.68a5.049 5.049 0 0 0-1.573-.264c-2.11 0-3.358 1.459-3.358 3.885Z"/><rect width="176" height="57" x="892" y=".867" fill="#487961" rx="28.5"/><path fill="#fff" d="M924.157 35.867v-8.235H921.6v-1.275h2.557V25.4c0-1.845 1.143-2.707 3.489-2.707.554 0 1.881.044 2.198.088v1.222c-.413-.044-1.644-.08-2.18-.08-1.327 0-2.03.493-2.03 1.451v.984h4.21v1.275h-4.193v8.235h-1.494Zm12.43-11.874c-.703 0-1.239-.527-1.239-1.23 0-.695.536-1.222 1.239-1.222.704 0 1.24.527 1.24 1.222 0 .703-.536 1.23-1.24 1.23Zm3.999 11.874h-7.901v-1.24h3.27V27.57h-3.244v-1.239h4.72v8.297h3.155v1.24Zm10.857 0h-7.901v-1.24h3.261v-10.8h-3.235v-1.24h4.729v12.04h3.146v1.24Zm9.267-2.46h1.45c-.29 1.573-1.802 2.636-3.806 2.636-2.619 0-4.14-1.573-4.14-4.29v-1.432c0-2.513 1.609-4.166 4.035-4.166 2.478 0 3.937 1.644 3.937 4.404v.931h-6.495v.387c0 1.749 1.037 2.874 2.663 2.874 1.204 0 2.092-.51 2.356-1.345Zm-2.47-5.968c-1.591 0-2.549 1.09-2.549 2.917h5.019c0-1.819-.932-2.918-2.47-2.918Zm18.137 1.467c0-1.652 1.406-2.76 3.506-2.76 1.987 0 3.331.994 3.507 2.584h-1.441c-.176-.835-.976-1.344-2.092-1.344-1.213 0-1.995.562-1.995 1.432 0 .73.492 1.143 1.687 1.407l1.345.307c1.855.422 2.698 1.23 2.698 2.61 0 1.758-1.467 2.901-3.726 2.901-2.162 0-3.595-1.01-3.762-2.645h1.521c.219.878 1.063 1.388 2.294 1.388 1.3 0 2.127-.589 2.127-1.503 0-.756-.466-1.16-1.679-1.432l-1.415-.326c-1.723-.395-2.575-1.265-2.575-2.619Zm16.903 4.5h1.451c-.29 1.574-1.802 2.637-3.806 2.637-2.619 0-4.14-1.573-4.14-4.29v-1.432c0-2.513 1.609-4.166 4.034-4.166 2.479 0 3.938 1.644 3.938 4.404v.931h-6.495v.387c0 1.749 1.037 2.874 2.663 2.874 1.204 0 2.092-.51 2.355-1.345Zm-2.469-5.967c-1.591 0-2.549 1.09-2.549 2.917h5.018c0-1.819-.931-2.918-2.469-2.918Zm10.369 4.157v3.076h2.96v1.195h-6.34v-1.195h1.925v-7.146h-2.118v-1.195h3.563v2.435h.19c.35-1.767 1.54-2.681 3.38-2.681.54 0 1.06.08 1.37.21v1.68a4.97 4.97 0 0 0-1.57-.264c-2.11 0-3.36 1.459-3.36 3.885Zm6.93-5.265h1.6l2.67 7.937h.11l2.64-7.937h1.6l-3.48 9.536h-1.65l-3.49-9.536Zm17.74 7.075h1.45c-.29 1.574-1.8 2.637-3.8 2.637-2.62 0-4.14-1.573-4.14-4.29v-1.432c0-2.513 1.6-4.166 4.03-4.166 2.48 0 3.94 1.644 3.94 4.404v.931h-6.5v.387c0 1.749 1.04 2.874 2.67 2.874 1.2 0 2.09-.51 2.35-1.345Zm-2.47-5.967c-1.59 0-2.55 1.09-2.55 2.917h5.02c0-1.819-.93-2.918-2.47-2.918Zm10.38 4.157v3.076h2.95v1.195h-6.34v-1.195h1.93v-7.146h-2.12v-1.195h3.56v2.435h.19c.35-1.767 1.54-2.681 3.38-2.681.54 0 1.06.08 1.38.21v1.68a5.083 5.083 0 0 0-1.58-.264c-2.11 0-3.35 1.459-3.35 3.885Z"/><rect width="165" height="57" x="241" y="85.867" fill="#487961" rx="28.5"/><path fill="#fff" d="m279.714 111.331-2.048 9.536h-1.433l-1.617-7.435h-.105l-1.617 7.435h-1.433l-2.048-9.536h1.459l1.292 7.647h.158l1.538-7.638h1.407l1.538 7.638h.158l1.292-7.647h1.459Zm8.282 7.075h1.45c-.29 1.573-1.802 2.637-3.806 2.637-2.619 0-4.139-1.573-4.139-4.289v-1.433c0-2.513 1.608-4.166 4.034-4.166 2.478 0 3.937 1.644 3.937 4.404v.931h-6.495v.387c0 1.749 1.037 2.874 2.663 2.874 1.204 0 2.092-.51 2.356-1.345Zm-2.47-5.968c-1.591 0-2.549 1.09-2.549 2.918h5.019c0-1.819-.932-2.918-2.47-2.918Zm11.349 8.587c-1.362 0-2.364-.562-2.856-1.617h-.167v1.459h-1.468v-13.28h1.52v5.221h.159c.421-1.046 1.432-1.635 2.812-1.635 2.206 0 3.647 1.591 3.647 4.034v1.775c0 2.453-1.441 4.043-3.647 4.043Zm-.439-1.362c1.582 0 2.584-1.134 2.584-2.892V115.4c0-1.757-1.002-2.882-2.584-2.882-1.565 0-2.567 1.125-2.567 2.882v1.371c0 1.767 1.002 2.892 2.567 2.892Zm18.084-5.757c0-1.652 1.406-2.76 3.506-2.76 1.987 0 3.331.994 3.507 2.584h-1.441c-.176-.834-.976-1.344-2.092-1.344-1.213 0-1.995.562-1.995 1.432 0 .73.492 1.143 1.687 1.407l1.345.307c1.855.422 2.698 1.231 2.698 2.611 0 1.757-1.467 2.9-3.726 2.9-2.162 0-3.595-1.011-3.762-2.646h1.521c.219.879 1.063 1.389 2.294 1.389 1.3 0 2.127-.589 2.127-1.503 0-.756-.466-1.16-1.679-1.432l-1.415-.326c-1.723-.395-2.575-1.265-2.575-2.619Zm16.903 4.5h1.451c-.29 1.573-1.802 2.637-3.806 2.637-2.619 0-4.14-1.573-4.14-4.289v-1.433c0-2.513 1.609-4.166 4.035-4.166 2.478 0 3.937 1.644 3.937 4.404v.931h-6.495v.387c0 1.749 1.037 2.874 2.663 2.874 1.204 0 2.092-.51 2.355-1.345Zm-2.469-5.968c-1.591 0-2.549 1.09-2.549 2.918h5.018c0-1.819-.931-2.918-2.469-2.918Zm10.373 4.158v3.076h2.953v1.195h-6.337v-1.195h1.925v-7.146h-2.118v-1.195h3.56v2.435h.193c.352-1.767 1.538-2.681 3.375-2.681.545 0 1.064.079 1.38.211v1.679a5.026 5.026 0 0 0-1.573-.264c-2.11 0-3.358 1.459-3.358 3.885Zm6.929-5.265h1.599l2.663 7.937h.114l2.646-7.937h1.591l-3.481 9.536h-1.643l-3.489-9.536Zm17.738 7.075h1.45c-.29 1.573-1.801 2.637-3.805 2.637-2.619 0-4.14-1.573-4.14-4.289v-1.433c0-2.513 1.609-4.166 4.034-4.166 2.479 0 3.938 1.644 3.938 4.404v.931h-6.495v.387c0 1.749 1.037 2.874 2.663 2.874 1.204 0 2.092-.51 2.355-1.345Zm-2.469-5.968c-1.591 0-2.549 1.09-2.549 2.918h5.018c0-1.819-.931-2.918-2.469-2.918Zm10.373 4.158v3.076h2.953v1.195h-6.337v-1.195h1.925v-7.146h-2.118v-1.195h3.56v2.435h.193c.351-1.767 1.538-2.681 3.375-2.681.545 0 1.063.079 1.38.211v1.679a5.026 5.026 0 0 0-1.573-.264c-2.11 0-3.358 1.459-3.358 3.885Z"/><rect width="187" height="57" x="846" y="85.867" fill="#487961" rx="28.5"/><path fill="#fff" d="m882.842 120.867-1.099-3.638h-4.412l-1.107 3.638h-1.574l4.087-12.682h1.653l4.087 12.682h-1.635Zm-3.322-10.819-1.785 5.853h3.604l-1.776-5.853h-.043Zm15.497 3.797v7.022h-1.345v-6.583c0-1.16-.421-1.766-1.221-1.766-.835 0-1.345.729-1.345 1.916v6.433h-1.336v-6.592c0-1.151-.422-1.757-1.23-1.757-.844 0-1.372.729-1.372 1.916v6.433h-1.344v-9.536h1.336v1.345h.158c.237-.958.923-1.521 1.819-1.521.897 0 1.53.554 1.732 1.494h.158c.246-.914 1.011-1.494 1.969-1.494 1.327 0 2.021.923 2.021 2.69Zm8.836 4.561h1.45c-.29 1.573-1.802 2.637-3.806 2.637-2.619 0-4.14-1.573-4.14-4.289v-1.433c0-2.513 1.609-4.166 4.035-4.166 2.478 0 3.937 1.644 3.937 4.404v.931h-6.495v.387c0 1.749 1.037 2.874 2.663 2.874 1.204 0 2.092-.51 2.356-1.345Zm-2.47-5.968c-1.591 0-2.549 1.09-2.549 2.918h5.019c0-1.819-.932-2.918-2.47-2.918Zm14.917 8.429h-7.901v-1.239h3.261v-10.802h-3.235v-1.239h4.729v12.041h3.146v1.239Zm6.858-11.874c-.703 0-1.239-.527-1.239-1.23 0-.695.536-1.222 1.239-1.222.703 0 1.24.527 1.24 1.222 0 .703-.537 1.23-1.24 1.23Zm3.999 11.874h-7.901v-1.239h3.269v-7.058h-3.243v-1.239h4.72v8.297h3.155v1.239Zm9.266-2.461h1.451c-.29 1.573-1.802 2.637-3.806 2.637-2.619 0-4.14-1.573-4.14-4.289v-1.433c0-2.513 1.609-4.166 4.035-4.166 2.478 0 3.937 1.644 3.937 4.404v.931h-6.495v.387c0 1.749 1.037 2.874 2.663 2.874 1.204 0 2.092-.51 2.355-1.345Zm-2.469-5.968c-1.591 0-2.549 1.09-2.549 2.918h5.018c0-1.819-.931-2.918-2.469-2.918Zm10.628 1.468h-1.415l1.09-5.721h1.977l-1.652 5.721Zm7.508 0c0-1.652 1.407-2.76 3.507-2.76 1.987 0 3.331.994 3.507 2.584h-1.441c-.176-.834-.976-1.344-2.092-1.344-1.213 0-1.995.562-1.995 1.432 0 .73.492 1.143 1.687 1.407l1.345.307c1.855.422 2.698 1.231 2.698 2.611 0 1.757-1.467 2.9-3.726 2.9-2.162 0-3.595-1.011-3.762-2.646h1.521c.219.879 1.063 1.389 2.293 1.389 1.301 0 2.127-.589 2.127-1.503 0-.756-.465-1.16-1.678-1.432l-1.415-.326c-1.723-.395-2.576-1.265-2.576-2.619Zm29.783-.061v7.022h-1.345v-6.583c0-1.16-.422-1.766-1.222-1.766-.835 0-1.344.729-1.344 1.916v6.433h-1.336v-6.592c0-1.151-.422-1.757-1.231-1.757-.844 0-1.371.729-1.371 1.916v6.433h-1.345v-9.536h1.336v1.345h.159c.237-.958.922-1.521 1.819-1.521.896 0 1.529.554 1.731 1.494h.158c.247-.914 1.011-1.494 1.969-1.494 1.327 0 2.022.923 2.022 2.69Zm5.293 7.189c-1.819 0-3.032-1.142-3.032-2.874 0-1.687 1.213-2.689 3.384-2.804l2.619-.131v-.862c0-1.195-.73-1.854-2.057-1.854-1.098 0-1.872.466-2.118 1.283h-1.468c.176-1.529 1.653-2.575 3.604-2.575 2.241 0 3.524 1.142 3.524 3.129v6.53h-1.424v-1.433h-.149c-.457 1.02-1.494 1.591-2.883 1.591Zm.431-1.309c1.441 0 2.54-.958 2.54-2.233v-1.125l-2.452.114c-1.336.062-2.039.633-2.039 1.626 0 1.002.747 1.618 1.951 1.618Zm15.363-5.423h-1.47c-.19-1.116-1.12-1.82-2.351-1.82-1.661 0-2.584 1.134-2.584 3.182v.861c0 2.048.923 3.173 2.584 3.173 1.231 0 2.161-.694 2.351-1.784h1.47c-.23 1.942-1.68 3.129-3.794 3.129-2.593 0-4.105-1.591-4.105-4.324v-1.248c0-2.734 1.512-4.325 4.105-4.325 2.114 0 3.554 1.196 3.794 3.156Z"/><path stroke="#666361" stroke-linecap="round" stroke-width="1.5" d="M506 115.867h70c27.614 0 50 22.386 50 50v67M746 115.867h-70c-27.614 0-50 22.386-50 50v67M370 28.867h69.035c24.025 0 43.5 19.476 43.5 43.5v20.035c0 12.96 10.506 23.465 23.465 23.465v0M506 115.867h-90M882 28.867h-69.035c-24.025 0-43.5 19.476-43.5 43.5v20.035c0 12.96-10.506 23.465-23.465 23.465v0M746 115.867h90"/></svg>