<svg xmlns="http://www.w3.org/2000/svg" xmlns:xlink="http://www.w3.org/1999/xlink">
  <defs>
  <symbol viewBox="0 0 161 29" id="logo"><ellipse cx="3.582" cy="14.293" fill="#302C2C" rx="3.582" ry="3.573"/><ellipse cx="14.327" cy="14.293" fill="#302C2C" rx="3.582" ry="3.573"/><ellipse cx="3.582" cy="25.012" fill="#302C2C" opacity=".2" rx="3.582" ry="3.573"/><ellipse cx="25.073" cy="25.012" fill="#302C2C" opacity=".2" rx="3.582" ry="3.573"/><ellipse cx="14.327" cy="25.012" fill="#302C2C" rx="3.582" ry="3.573"/><ellipse cx="25.073" cy="14.293" fill="#302C2C" rx="3.582" ry="3.573"/><ellipse cx="3.582" cy="3.573" fill="#302C2C" opacity=".2" rx="3.582" ry="3.573"/><ellipse cx="14.327" cy="3.573" fill="#302C2C" opacity=".2" rx="3.582" ry="3.573"/><ellipse cx="25.073" cy="3.573" fill="#302C2C" opacity=".2" rx="3.582" ry="3.573"/><path fill="currentColor" d="M50.344 26.407a13.99 13.99 0 0 0 2.82-.285v-3.666c-.602.22-1.267.284-1.9.284-1.553 0-2.124-.759-2.124-2.213v-7.46h4.024V9.4H49.14V3.963h-4.436V9.4h-2.883v3.667h2.883v7.871c0 3.477 1.838 5.469 5.64 5.469ZM60.41 26.407c2.376 0 3.96-.79 4.752-2.023.064.537.254 1.264.507 1.707h3.993c-.222-.759-.38-1.96-.38-2.75v-8.662c0-3.572-2.567-5.595-6.908-5.595-3.295 0-5.862 1.233-7.288 3.035l2.535 2.497c1.14-1.264 2.598-1.928 4.373-1.928 2.155 0 3.105.727 3.105 1.802 0 .916-.634 1.549-4.056 1.549-3.295 0-6.622 1.359-6.622 5.152 0 3.509 2.535 5.216 5.989 5.216Zm.887-3.35c-1.711 0-2.504-.728-2.504-2.024 0-1.138.951-1.896 2.535-1.896 2.535 0 3.233-.159 3.771-.696v1.36c0 1.801-1.52 3.255-3.802 3.255ZM72.166 7.283h4.626V3.142h-4.626v4.14Zm.095 18.808h4.436V9.4H72.26v16.69ZM79.929 26.09h4.436V3.648h-4.436v22.444ZM93.586 26.407c4.88 0 7.383-2.56 7.383-5.247 0-2.434-1.236-4.236-5.292-4.963-2.852-.506-4.626-1.138-4.626-2.118 0-.854 1.014-1.454 2.725-1.454 1.52 0 2.788.505 3.739 1.612l2.82-2.37c-1.426-1.771-3.77-2.783-6.56-2.783-4.277 0-6.939 2.276-6.939 5.058 0 3.035 2.789 4.394 5.799 4.931 2.503.443 3.897.917 3.897 1.992 0 .916-.982 1.675-2.851 1.675-1.838 0-3.264-.853-3.93-2.118l-3.739 1.77c.92 2.276 4.056 4.015 7.574 4.015ZM110.886 26.407c3.169 0 5.451-1.265 7.162-4.11l-3.549-1.801c-.666 1.327-1.743 2.244-3.613 2.244-2.82 0-4.341-2.276-4.341-5.026s1.616-4.963 4.341-4.963c1.712 0 2.852.917 3.518 2.308l3.58-1.897c-1.204-2.624-3.58-4.078-7.098-4.078-5.798 0-8.777 4.236-8.777 8.63 0 4.773 3.613 8.693 8.777 8.693ZM125.114 26.407c2.377 0 3.961-.79 4.753-2.023.064.537.254 1.264.507 1.707h3.993c-.222-.759-.38-1.96-.38-2.75v-8.662c0-3.572-2.567-5.595-6.908-5.595-3.296 0-5.862 1.233-7.288 3.035l2.535 2.497c1.141-1.264 2.598-1.928 4.373-1.928 2.154 0 3.105.727 3.105 1.802 0 .916-.634 1.549-4.056 1.549-3.295 0-6.623 1.359-6.623 5.152 0 3.509 2.535 5.216 5.989 5.216Zm.887-3.35c-1.711 0-2.503-.728-2.503-2.024 0-1.138.951-1.896 2.535-1.896 2.535 0 3.232-.159 3.771-.696v1.36c0 1.801-1.521 3.255-3.803 3.255ZM136.594 26.09h4.436V3.648h-4.436v22.444ZM151.677 26.407c3.264 0 5.894-1.296 7.351-3.604l-3.359-2.15c-.887 1.392-2.059 2.15-3.992 2.15-2.186 0-3.771-1.2-4.183-3.54h12.612v-1.549c0-4.394-2.694-8.63-8.461-8.63-5.482 0-8.46 4.268-8.46 8.662 0 6.259 4.721 8.66 8.492 8.66Zm-4.024-10.621c.697-2.118 2.154-3.098 4.087-3.098 2.187 0 3.518 1.296 3.961 3.098h-8.048Z"/></symbol>

  <symbol viewBox="0 0 16 18" id="arrowRight">
    <path fill-rule="evenodd" clip-rule="evenodd" d="M9.471 13.9149L14.276 9.10993L9.471 4.30493L8.529 5.24793L11.724 8.44293H2V9.77693H11.724L8.529 12.9719L9.471 13.9149Z" fill="currentColor"/>
  </symbol>

  <symbol viewBox="0 0 16 17" id="reply">
    <path d="M12 4H4C3.60218 4 3.22064 4.15804 2.93934 4.43934C2.65804 4.72064 2.5 5.10218 2.5 5.5V10.5C2.5 10.8978 2.65804 11.2794 2.93934 11.5607C3.22064 11.842 3.60218 12 4 12H5.5V15L8.5 12H12C12.3978 12 12.7794 11.842 13.0607 11.5607C13.342 11.2794 13.5 10.8978 13.5 10.5V5.5C13.5 5.10218 13.342 4.72064 13.0607 4.43934C12.7794 4.15804 12.3978 4 12 4Z" stroke="currentColor" stroke-linecap="round" fill="transparent"/>
  </symbol>

  <symbol viewBox="0 0 13 10" id="tick">
  <path stroke="currentColor" stroke-linecap="square" stroke-width="1.3" d="M1.5 5.923 4.278 9 11.5 1" fill="transparent"/>
  </symbol>

  <symbol viewBox="0 0 16 17" id="search">
    <path fill="transparent" stroke="currentColor" stroke-linecap="square" stroke-miterlimit="10" stroke-width="1.175" d="m14.013 14.375-3.726-3.727M6.963 12.025a4.7 4.7 0 1 0 0-9.4 4.7 4.7 0 0 0 0 9.4Z"/>
  </symbol>

  <symbol viewBox="0 0 19 18" id="check" fill="none">
	  <path d="M15.625 4.5L7.375 12.75L3.625 9" stroke="currentColor" stroke-width="1.5" stroke-linecap="round" stroke-linejoin="round"/>
	</symbol>

  <symbol viewBox="0 0 19 18" id="minus" fill="none">
	  <path d="M4.375 9H14.875" stroke="currentColor" stroke-width="1.5" stroke-linecap="round" stroke-linejoin="round"/>
	</symbol>

  <symbol viewBox="0 0 15 16" id="alarm">
     <g fill="currentColor" clip-path="url(#a)"><path d="M13.179 8.313a1.648 1.648 0 0 1-1.837-1.06l-.648-2.415a4 4 0 1 0-7.727 2.07l.647 2.415a1.648 1.648 0 0 1-1.06 1.837.5.5 0 1 0 .258.966L13.438 9.28a.5.5 0 1 0-.26-.966ZM8.903 13.6a2 2 0 0 0 1.414-2.449l-3.864 1.035a2 2 0 0 0 2.45 1.415Z"/></g><defs><clipPath id="a"><path fill="currentColor" d="M0 3.562 11.591.457l3.106 11.59-11.591 3.106z"/></clipPath></defs>
  </symbol>

  <symbol viewBox="0 0 24 24" id="flag" fill="none">
    <path d="M4 15s1-1 4-1 5 2 8 2 4-1 4-1V3s-1 1-4 1-5-2-8-2-4 1-4 1z" stroke="currentColor" stroke-width="2"/>
    <line x1="4" y1="22" x2="4" y2="15" stroke="currentColor" stroke-width="2"/>
  </symbol>

<symbol viewBox="0 0 45 30" fill="none" id="plan-personal">
<path d="M14.9999 29.9999C6.71692 29.9999 -6.42626e-05 23.2829 -6.35385e-05 15C-6.28144e-05 6.71698 6.71693 -8.35352e-06 14.9999 -7.62939e-06L14.9999 29.9999Z" fill="#85D996"/>
<path d="M44.9999 15C44.9999 6.71577 38.2842 5.34058e-05 29.9999 5.34058e-05C21.7157 5.34058e-05 15 6.71577 15 15C15 23.2843 21.7157 30 29.9999 30C38.2842 30 44.9999 23.2843 44.9999 15Z" fill="#0D4B3B"/>
</symbol>

  <symbol viewBox="0 0 45 30" fill="none" id="plan-personal-plus">
<path d="M0 7.50004L0 22.4913C0 26.6334 3.35786 29.9912 7.49999 29.9912C11.6421 29.9912 15 26.6334 15 22.4913L15 7.50004C15 3.35791 11.6421 5.53131e-05 7.49999 5.53131e-05C3.35786 5.53131e-05 0 3.35791 0 7.50004Z" fill="#0D4B3B"/>
<path d="M44.9998 15.0001C44.9998 23.283 38.2828 30 29.9998 30C21.7169 30 14.9999 23.283 14.9999 15.0001L44.9998 15.0001Z" fill="#22AB74"/>
<path d="M44.9998 15.0001C44.9998 6.71707 38.2828 8.29697e-05 29.9998 8.29697e-05C21.7169 8.29697e-05 14.9999 6.71707 14.9999 15.0001L44.9998 15.0001Z" fill="#85D996"/>
</symbol>


<symbol viewBox="0 0 45 30" fill="none" id="plan-starter">
<path d="M0 6.10352e-05C8.283 6.10352e-05 15 6.71706 15 15.0001C15 23.2831 8.283 30.0001 0 30.0001V6.10352e-05Z" fill="#95BFFF"/>
<path d="M15 30.0001L45 30.0001L45 5.91278e-05L15 5.91278e-05L15 30.0001Z" fill="#3B51AA"/>
</symbol>

 <symbol viewBox="0 0 60 30" fill="none" id="plan-premium">
<path d="M30 6.10352e-05C30 8.28306 23.283 15.0001 15 15.0001C6.717 15.0001 0 8.28306 0 6.10352e-05H30Z" fill="#EFC078"/>
<path d="M30 15.0001C30 23.2831 23.283 30.0001 15 30.0001C6.717 30.0001 0 23.2831 0 15.0001H30Z" fill="#EFC078"/>
<path d="M45 30.0001C53.2843 30.0001 60 23.2843 60 15.0001C60 6.71579 53.2843 6.10352e-05 45 6.10352e-05C36.7157 6.10352e-05 30 6.71579 30 15.0001C30 23.2843 36.7157 30.0001 45 30.0001Z" fill="#762B0B"/>
</symbol>


 <symbol viewBox="0 0 60 30" fill="none" id="plan-enterprise">
<rect y="15" width="15" height="30" rx="7.5" transform="rotate(-90 0 15)" fill="#B28FCC"/>
<path d="M15 15C13.0302 15 11.0796 15.388 9.25975 16.1418C7.43986 16.8956 5.78628 18.0005 4.3934 19.3934C3.00052 20.7863 1.89563 22.4399 1.14181 24.2597C0.387986 26.0796 -1.72208e-07 28.0302 0 30L15 30L15 15Z" fill="#9060B3"/>
<circle cx="22.5" cy="22.5" r="7.5" transform="rotate(-90 22.5 22.5)" fill="#9060B3"/>
<path d="M30 30L60 30L60 -1.90735e-06L30 -1.90735e-06L30 30Z" fill="#4C325F"/>
</symbol>

  <symbol viewBox="0 0 15 12" id="twitter">
    <path d="M14.6667 1.43077C14.1167 1.66154 13.5437 1.84615 12.9479 1.91538C13.5667 1.54615 14.0479 0.946154 14.2771 0.230769C13.7042 0.576923 13.0625 0.830769 12.375 0.969231C11.8021 0.369231 11.0229 0 10.1521 0C8.47917 0 7.15 1.36154 7.15 3.02308C7.15 3.25385 7.17292 3.48462 7.21875 3.71538C4.72083 3.6 2.49792 2.37692 1.03125 0.553846C0.779167 0.992308 0.61875 1.52308 0.61875 2.07692C0.61875 3.13846 1.14583 4.06154 1.94792 4.59231C1.44375 4.56923 0.985417 4.43077 0.595833 4.22308C0.595833 4.24615 0.595833 4.24615 0.595833 4.26923C0.595833 5.74615 1.62708 6.96923 3.00208 7.24615C2.75 7.31538 2.475 7.36154 2.2 7.36154C2.01667 7.36154 1.81042 7.33846 1.62708 7.31538C2.01667 8.51538 3.11667 9.39231 4.44583 9.41538C3.41458 10.2231 2.10833 10.7077 0.710417 10.7077C0.458333 10.7077 0.229167 10.6846 0 10.6615C1.32917 11.4923 2.91042 12 4.60625 12C10.1521 12 13.1771 7.38462 13.1771 3.36923C13.1771 3.23077 13.1771 3.11538 13.1771 2.97692C13.75 2.56154 14.2542 2.03077 14.6667 1.43077Z" fill="currentColor"/>
  </symbol>

  <symbol viewBox="0 0 17 17" id="rss">
    <path d="M2.92969 7.8335C4.52099 7.8335 6.04711 8.46564 7.17233 9.59086C8.29755 10.7161 8.92969 12.2422 8.92969 13.8335" stroke="currentColor" stroke-width="1.33333" stroke-linecap="round" stroke-linejoin="round" fill="none"/>
    <path d="M2.92969 3.1665C5.75866 3.1665 8.47177 4.29031 10.4722 6.2907C12.4725 8.29109 13.5964 11.0042 13.5964 13.8332" stroke="currentColor" stroke-width="1.33333" stroke-linecap="round" stroke-linejoin="round" fill="none"/>
    <path d="M3.59635 13.8333C3.96454 13.8333 4.26302 13.5349 4.26302 13.1667C4.26302 12.7985 3.96454 12.5 3.59635 12.5C3.22816 12.5 2.92969 12.7985 2.92969 13.1667C2.92969 13.5349 3.22816 13.8333 3.59635 13.8333Z" stroke="currentColor" stroke-width="1.33333" stroke-linecap="round" stroke-linejoin="round" fill="none"/>
  </symbol>

  <symbol viewBox="0 0 20 20" id="alert-circle">
    <path fill-rule="evenodd" clip-rule="evenodd" d="M18 10C18 14.4183 14.4183 18 10 18C5.58172 18 2 14.4183 2 10C2 5.58172 5.58172 2 10 2C14.4183 2 18 5.58172 18 10ZM20 10C20 15.5228 15.5228 20 10 20C4.47715 20 0 15.5228 0 10C0 4.47715 4.47715 0 10 0C15.5228 0 20 4.47715 20 10ZM10.8026 12.1108L10.9688 6H9.0725L9.24296 12.1108H10.8026ZM9.29835 14.5398C9.50006 14.7386 9.74154 14.8381 10.0228 14.8381C10.2046 14.8381 10.3722 14.7926 10.5256 14.7017C10.679 14.608 10.8026 14.4844 10.8964 14.331C10.993 14.1747 11.0427 14.0028 11.0455 13.8153C11.0427 13.5369 10.939 13.2983 10.7344 13.0994C10.5299 12.9006 10.2927 12.8011 10.0228 12.8011C9.74154 12.8011 9.50006 12.9006 9.29835 13.0994C9.09665 13.2983 8.99722 13.5369 9.00006 13.8153C8.99722 14.0966 9.09665 14.3381 9.29835 14.5398Z" fill="currentColor"/>
  </symbol>

  <symbol viewBox="0 0 23 23" id="info-circle">
    <path fill-rule="evenodd" clip-rule="evenodd" d="M11.5469 2.04736C6.57631 2.04736 2.54688 6.0768 2.54688 11.0474C2.54688 16.0179 6.57631 20.0474 11.5469 20.0474C16.5174 20.0474 20.5469 16.0179 20.5469 11.0474C20.5469 6.0768 16.5174 2.04736 11.5469 2.04736ZM0.546875 11.0474C0.546875 4.97223 5.47174 0.0473633 11.5469 0.0473633C17.622 0.0473633 22.5469 4.97223 22.5469 11.0474C22.5469 17.1225 17.622 22.0474 11.5469 22.0474C5.47174 22.0474 0.546875 17.1225 0.546875 11.0474ZM11.5469 10.0474C12.0992 10.0474 12.5469 10.4951 12.5469 11.0474V15.0474C12.5469 15.5996 12.0992 16.0474 11.5469 16.0474C10.9946 16.0474 10.5469 15.5996 10.5469 15.0474V11.0474C10.5469 10.4951 10.9946 10.0474 11.5469 10.0474ZM11.5469 6.04736C10.9946 6.04736 10.5469 6.49508 10.5469 7.04736C10.5469 7.59965 10.9946 8.04736 11.5469 8.04736H11.5569C12.1092 8.04736 12.5569 7.59965 12.5569 7.04736C12.5569 6.49508 12.1092 6.04736 11.5569 6.04736H11.5469Z" fill="currentColor"/>
  </symbol>

  <symbol viewBox="0 0 16 13" id="mail">
    <path fill-rule="evenodd" clip-rule="evenodd" d="M2.07163 2.20259C2.18187 1.9845 2.40862 1.83317 2.66732 1.83317H13.334C13.5927 1.83317 13.8194 1.9845 13.9296 2.20259L8.00065 6.3529L2.07163 2.20259ZM0.667346 2.48852C0.667239 2.49507 0.667229 2.50162 0.667315 2.50817V10.4998C0.667315 11.6014 1.56577 12.4999 2.66732 12.4999H13.334C14.4355 12.4999 15.334 11.6014 15.334 10.4998V2.50817M14.0006 3.78044V10.4998C14.0006 10.865 13.6991 11.1665 13.334 11.1665H2.66732C2.30219 11.1665 2.00064 10.865 2.00064 10.4998V3.78043L7.61834 7.71282C7.84789 7.87351 8.15341 7.87351 8.38296 7.71282L14.0006 3.78044ZM15.3339 2.48851C15.3278 1.39217 14.4317 0.499835 13.334 0.499835H2.66732C1.56957 0.499835 0.673476 1.39216 0.667346 2.48852" fill="currentColor"/>
  </symbol>

  <symbol viewBox="0 0 14 11" id="align-left">
    <path fill-rule="evenodd" clip-rule="evenodd" d="M0.333333 4.16667C0.333333 3.79848 0.63181 3.5 1 3.5H10.3333C10.7015 3.5 11 3.79848 11 4.16667C11 4.53486 10.7015 4.83333 10.3333 4.83333H1C0.63181 4.83333 0.333333 4.53486 0.333333 4.16667Z" fill="currentColor"/>
    <path fill-rule="evenodd" clip-rule="evenodd" d="M0.333333 1.5C0.333333 1.13181 0.63181 0.833333 1 0.833333H13C13.3682 0.833333 13.6667 1.13181 13.6667 1.5C13.6667 1.86819 13.3682 2.16667 13 2.16667H1C0.63181 2.16667 0.333333 1.86819 0.333333 1.5Z" fill="currentColor"/>
    <path fill-rule="evenodd" clip-rule="evenodd" d="M0.333333 6.83333C0.333333 6.46514 0.63181 6.16667 1 6.16667H13C13.3682 6.16667 13.6667 6.46514 13.6667 6.83333C13.6667 7.20152 13.3682 7.5 13 7.5H1C0.63181 7.5 0.333333 7.20152 0.333333 6.83333Z" fill="currentColor"/>
    <path fill-rule="evenodd" clip-rule="evenodd" d="M0.333333 9.5C0.333333 9.13181 0.63181 8.83333 1 8.83333H10.3333C10.7015 8.83333 11 9.13181 11 9.5C11 9.86819 10.7015 10.1667 10.3333 10.1667H1C0.63181 10.1667 0.333333 9.86819 0.333333 9.5Z" fill="currentColor"/>
  </symbol>

  <symbol viewBox="0 0 17 15" id="twitter-x">
    <path d="M1.30155 0.909333H1.11388L1.23052 1.05635L6.86912 8.16389L1.20093 13.9365L1.04953 14.0907H1.26562H2.55393H2.59198L2.61863 14.0635L7.55832 9.03275L11.5438 14.0564L11.571 14.0907H11.6148H15.999H16.1866L16.07 13.9437L10.1113 6.4328L15.3834 1.06352L15.5347 0.909333H15.3187H14.0304H13.9923L13.9657 0.936478L9.42213 5.56393L5.75674 0.94365L5.72952 0.909333H5.68571H1.30155ZM12.1338 13.0146L3.38377 1.98528H5.16639L13.9164 13.0146H12.1338Z" fill="currentColor" stroke="currentColor" stroke-width="0.181333"/> 
  </symbol>

  <symbol viewBox="0 0 16 16" id="close">
    <path d="M12 4L4 12" stroke="currentColor" stroke-width="1.66667" stroke-linecap="round" stroke-linejoin="round"/>
    <path d="M4 4L12 12" stroke="currentColor" stroke-width="1.66667" stroke-linecap="round" stroke-linejoin="round"/> 
  </symbol>


  </defs>
</svg>